<svg width="1280" height="720" viewBox="0 0 1280 720" fill="none" xmlns="http://www.w3.org/2000/svg">
  <rect width="1280" height="720" fill="#101923"/>
  <circle cx="170" cy="110" r="170" fill="#0C9488" fill-opacity="0.16"/>
  <rect x="64" y="48" width="1152" height="176" rx="28" fill="#182332" stroke="#2A3A50"/>
  <text x="96" y="95" fill="#66D1C4" font-family="Georgia, serif" font-size="20" letter-spacing="4">GITHUB PROFILE ANALYZER</text>
  <text x="96" y="152" fill="#EDF4FF" font-family="Georgia, serif" font-size="48">Compare public GitHub profiles at a glance.</text>
  <text x="96" y="190" fill="#A9B6C7" font-family="Georgia, serif" font-size="22">Followers, stars, language overlap, activity, and a transparent score heuristic.</text>
  <rect x="96" y="252" width="316" height="58" rx="18" fill="#0C131E" stroke="#2A3A50"/>
  <text x="118" y="288" fill="#A9B6C7" font-family="Georgia, serif" font-size="22">torvalds</text>
  <rect x="428" y="252" width="316" height="58" rx="18" fill="#0C131E" stroke="#2A3A50"/>
  <text x="450" y="288" fill="#A9B6C7" font-family="Georgia, serif" font-size="22">gaearon</text>
  <rect x="760" y="252" width="146" height="58" rx="18" fill="url(#buttonGradient)"/>
  <text x="796" y="288" fill="white" font-family="Georgia, serif" font-size="22">Analyze</text>

  <rect x="64" y="252" width="554" height="188" rx="24" fill="#182332" stroke="#2A3A50"/>
  <rect x="662" y="252" width="554" height="188" rx="24" fill="#182332" stroke="#2A3A50"/>
  <circle cx="154" cy="330" r="40" fill="#2C455E"/>
  <circle cx="752" cy="330" r="40" fill="#2C455E"/>
  <text x="214" y="326" fill="#EDF4FF" font-family="Georgia, serif" font-size="34">Linus Torvalds</text>
  <text x="812" y="326" fill="#EDF4FF" font-family="Georgia, serif" font-size="34">Dan Abramov</text>
  <text x="214" y="360" fill="#A9B6C7" font-family="Georgia, serif" font-size="20">@torvalds</text>
  <text x="812" y="360" fill="#A9B6C7" font-family="Georgia, serif" font-size="20">@gaearon</text>
  <rect x="214" y="388" width="116" height="34" rx="17" fill="#163A3A"/>
  <text x="236" y="410" fill="#66D1C4" font-family="Georgia, serif" font-size="16">248K followers</text>
  <rect x="812" y="388" width="114" height="34" rx="17" fill="#163A3A"/>
  <text x="834" y="410" fill="#66D1C4" font-family="Georgia, serif" font-size="16">89K followers</text>

  <rect x="64" y="466" width="368" height="190" rx="24" fill="#182332" stroke="#2A3A50"/>
  <rect x="456" y="466" width="368" height="190" rx="24" fill="#182332" stroke="#2A3A50"/>
  <rect x="848" y="466" width="368" height="190" rx="24" fill="#182332" stroke="#2A3A50"/>

  <text x="92" y="508" fill="#EDF4FF" font-family="Georgia, serif" font-size="28">Comparison Metrics</text>
  <text x="92" y="546" fill="#A9B6C7" font-family="Georgia, serif" font-size="20">Followers</text>
  <text x="320" y="546" fill="#66D1C4" font-family="Georgia, serif" font-size="20">248K vs 89K</text>
  <text x="92" y="578" fill="#A9B6C7" font-family="Georgia, serif" font-size="20">Total stars</text>
  <text x="300" y="578" fill="#66D1C4" font-family="Georgia, serif" font-size="20">196K vs 125K</text>
  <text x="92" y="610" fill="#A9B6C7" font-family="Georgia, serif" font-size="20">Language overlap</text>
  <text x="276" y="610" fill="#66D1C4" font-family="Georgia, serif" font-size="20">C, JavaScript, TypeScript</text>

  <text x="484" y="508" fill="#EDF4FF" font-family="Georgia, serif" font-size="28">Top Repositories</text>
  <text x="484" y="546" fill="#A9B6C7" font-family="Georgia, serif" font-size="20">linux</text>
  <text x="726" y="546" fill="#66D1C4" font-family="Georgia, serif" font-size="20">194K stars</text>
  <text x="484" y="578" fill="#A9B6C7" font-family="Georgia, serif" font-size="20">redux</text>
  <text x="720" y="578" fill="#66D1C4" font-family="Georgia, serif" font-size="20">61K stars</text>

  <text x="876" y="508" fill="#EDF4FF" font-family="Georgia, serif" font-size="28">Recent Activity</text>
  <rect x="884" y="558" width="18" height="44" rx="9" fill="#F0B44B"/>
  <rect x="912" y="528" width="18" height="74" rx="9" fill="#66D1C4"/>
  <rect x="940" y="540" width="18" height="62" rx="9" fill="#F0B44B"/>
  <rect x="968" y="510" width="18" height="92" rx="9" fill="#66D1C4"/>
  <rect x="996" y="548" width="18" height="54" rx="9" fill="#F0B44B"/>
  <rect x="1024" y="522" width="18" height="80" rx="9" fill="#66D1C4"/>
  <rect x="1052" y="534" width="18" height="68" rx="9" fill="#F0B44B"/>
  <text x="884" y="628" fill="#A9B6C7" font-family="Georgia, serif" font-size="18">Daily and weekly event counts</text>

  <defs>
    <linearGradient id="buttonGradient" x1="760" y1="252" x2="906" y2="310" gradientUnits="userSpaceOnUse">
      <stop stop-color="#0F766E"/>
      <stop offset="1" stop-color="#155E75"/>
    </linearGradient>
  </defs>
</svg>
